<?xml version="1.0" standalone="no"?>
<!DOCTYPE svg PUBLIC "-//W3C//DTD SVG 20010904//EN"
 "http://www.w3.org/TR/2001/REC-SVG-20010904/DTD/svg10.dtd">
<svg version="1.0" xmlns="http://www.w3.org/2000/svg"
 width="620.000000pt" height="620.000000pt" viewBox="0 0 620.000000 620.000000"
 preserveAspectRatio="xMidYMid meet">

<g transform="translate(0.000000,620.000000) scale(0.100000,-0.100000)"
fill="#000000" stroke="none">
<path d="M2285 4883 c-388 -30 -671 -105 -969 -255 -340 -171 -634 -466 -780
-783 -110 -239 -155 -455 -156 -747 0 -272 34 -455 131 -698 89 -226 200 -392
384 -575 188 -188 389 -317 651 -418 399 -154 904 -180 1544 -81 178 28 435
78 488 95 51 17 55 35 35 151 -15 86 -18 163 -18 463 0 318 2 369 19 433 30
119 69 149 206 161 71 6 75 7 78 32 5 45 -8 48 -208 37 -200 -11 -749 -4 -949
12 -133 10 -151 6 -151 -34 0 -36 20 -46 91 -46 126 0 317 -20 373 -40 113
-39 165 -106 188 -242 6 -40 12 -165 12 -278 1 -232 -12 -312 -69 -435 -47
-101 -100 -157 -198 -205 -113 -55 -191 -70 -395 -77 -265 -9 -470 20 -687 97
-335 119 -640 376 -829 698 -175 298 -267 653 -267 1027 0 313 45 526 163 785
151 330 460 612 810 740 308 113 699 133 977 50 153 -45 305 -130 418 -233
127 -117 256 -330 326 -542 31 -91 36 -100 60 -103 16 -2 29 2 32 10 8 22 -71
746 -83 760 -17 21 -179 103 -260 132 -135 48 -337 88 -537 106 -101 9 -335
11 -430 3z"/>
<path d="M4344 4817 c-3 -9 -4 -24 -2 -34 3 -16 18 -19 123 -24 177 -10 243
-29 296 -86 41 -43 56 -82 68 -167 15 -108 15 -2744 0 -2852 -17 -125 -60
-190 -144 -222 -51 -19 -96 -25 -220 -31 l-120 -6 0 -29 0 -30 675 0 675 0 0
30 0 29 -132 7 c-83 4 -154 13 -190 24 -70 22 -127 75 -145 136 -10 34 -13
335 -13 1518 l0 1475 24 54 c44 97 130 138 311 147 146 7 152 9 148 42 l-3 27
-255 -5 c-358 -7 -537 -6 -832 4 -228 7 -259 6 -264 -7z"/>
</g>
</svg>
