<?xml version="1.0" standalone="no"?>
<!DOCTYPE svg PUBLIC "-//W3C//DTD SVG 20010904//EN"
 "http://www.w3.org/TR/2001/REC-SVG-20010904/DTD/svg10.dtd">
<svg version="1.0" xmlns="http://www.w3.org/2000/svg"
 width="1272.000000pt" height="144.000000pt" viewBox="0 0 1272.000000 144.000000"
 preserveAspectRatio="xMidYMid meet">

<g transform="translate(0.000000,144.000000) scale(0.100000,-0.100000)"
fill="#000000" stroke="none">
<path d="M815 1369 c-151 -16 -238 -44 -352 -115 -156 -97 -241 -233 -264
-423 -38 -311 135 -571 447 -673 61 -20 89 -23 249 -23 170 1 203 4 386 41
l27 5 -5 162 c-6 203 3 240 60 245 27 2 37 8 37 20 0 15 -21 17 -225 18 -200
0 -225 -1 -223 -15 3 -13 22 -17 86 -21 73 -5 86 -9 110 -33 26 -27 27 -30 27
-145 0 -106 -2 -121 -24 -159 -48 -83 -185 -114 -345 -79 -283 63 -456 297
-456 617 0 278 150 475 408 535 83 20 207 14 274 -12 108 -44 198 -141 228
-248 13 -47 40 -64 40 -25 0 12 -5 74 -12 137 l-12 115 -60 28 c-91 42 -262
63 -401 48z"/>
<path d="M6124 1351 c-13 -13 2 -20 52 -27 36 -4 65 -15 82 -29 l27 -23 0
-521 c0 -516 0 -521 -21 -542 -15 -15 -39 -22 -83 -26 -42 -4 -61 -10 -61 -19
0 -11 43 -14 235 -14 193 0 235 2 235 14 0 10 -18 15 -60 18 -45 3 -66 10 -83
26 l-22 23 0 520 0 521 27 23 c17 14 46 25 83 30 31 3 55 11 53 17 -4 10 -454
19 -464 9z"/>
<path d="M3473 1280 c-30 -27 -36 -55 -23 -95 13 -38 59 -61 104 -49 59 14 78
105 30 143 -34 26 -84 27 -111 1z"/>
<path d="M10013 1288 c-26 -13 -43 -55 -36 -91 11 -58 88 -85 136 -47 22 17
27 29 27 63 0 48 -6 59 -37 76 -26 13 -60 13 -90 -1z"/>
<path d="M7920 1003 c0 -28 -37 -82 -71 -102 -17 -10 -48 -22 -70 -25 -48 -8
-55 -36 -9 -36 17 0 39 -9 50 -20 19 -19 20 -33 20 -295 0 -306 3 -324 61
-366 30 -21 45 -24 129 -24 91 0 98 2 161 37 109 61 124 101 20 54 -102 -45
-198 -28 -233 44 -16 31 -18 68 -18 298 l0 264 63 -7 c34 -3 86 -10 116 -16
30 -5 63 -9 73 -9 20 0 33 38 23 69 -6 21 -10 21 -141 15 l-134 -7 0 71 c0 65
-2 72 -20 72 -12 0 -20 -7 -20 -17z"/>
<path d="M2803 910 c-43 -10 -108 -50 -165 -100 l-48 -42 0 29 c0 15 -9 47
-20 71 -15 32 -24 42 -42 41 -31 -1 -230 -101 -236 -118 -5 -14 -3 -14 83 8
94 24 99 9 103 -280 5 -309 -1 -329 -97 -341 -14 -2 -26 -9 -29 -15 -5 -16
353 -19 363 -3 7 11 -3 16 -58 25 -62 10 -67 34 -67 304 l0 229 41 37 c58 52
119 77 190 77 73 0 117 -23 144 -77 18 -36 20 -63 23 -282 l3 -243 -25 -25
c-17 -17 -36 -25 -61 -25 -24 0 -35 -4 -35 -15 0 -13 27 -15 180 -15 153 0
180 2 180 15 0 10 -10 15 -34 15 -19 0 -44 9 -57 19 -24 19 -24 20 -30 293 -6
303 -9 319 -73 376 -54 48 -143 64 -233 42z"/>
<path d="M4320 911 c-53 -17 -115 -55 -160 -97 -49 -46 -60 -45 -60 8 0 32
-31 88 -49 88 -28 0 -241 -103 -241 -117 0 -16 4 -16 64 2 63 19 63 19 91 -10
l25 -24 0 -266 0 -266 -25 -24 c-16 -17 -35 -25 -60 -25 -24 0 -35 -4 -35 -15
0 -13 27 -15 180 -15 153 0 180 2 180 15 0 11 -11 15 -35 15 -25 0 -44 8 -60
25 l-25 24 0 250 0 249 38 30 c68 54 118 73 189 73 51 0 72 -5 98 -22 63 -44
69 -68 73 -320 5 -267 -1 -294 -65 -304 -55 -9 -65 -14 -58 -25 4 -6 76 -10
186 -10 152 0 179 2 179 15 0 10 -10 15 -30 15 -37 0 -77 18 -86 39 -4 9 -10
140 -13 293 l-6 276 -30 43 c-43 61 -83 82 -169 85 -39 2 -82 0 -96 -5z"/>
<path d="M7195 906 c-56 -18 -76 -30 -145 -87 l-60 -50 0 28 c0 15 -9 47 -20
71 -15 32 -24 42 -42 41 -31 -1 -230 -101 -236 -118 -5 -14 -5 -14 86 8 55 14
78 3 92 -47 13 -48 13 -465 0 -513 -10 -37 -36 -54 -89 -61 -14 -2 -26 -9 -29
-15 -3 -10 38 -13 183 -13 144 0 186 3 183 12 -3 7 -23 16 -46 20 -23 4 -47
10 -52 13 -22 14 -30 93 -30 301 l0 222 41 37 c58 52 119 77 190 77 70 0 114
-22 144 -72 18 -32 20 -55 23 -282 l3 -248 -25 -25 c-17 -17 -36 -25 -61 -25
-24 0 -35 -4 -35 -15 0 -13 27 -15 180 -15 153 0 180 2 180 15 0 11 -11 15
-35 15 -25 0 -44 8 -60 25 l-25 24 0 249 c0 205 -3 259 -17 301 -37 115 -164
169 -298 127z"/>
<path d="M10681 905 c-168 -47 -277 -174 -289 -336 -13 -182 75 -347 218 -412
62 -29 207 -35 282 -13 128 37 239 148 269 269 48 197 -34 387 -204 473 -66
34 -193 42 -276 19z m167 -54 c148 -75 228 -306 177 -506 -31 -119 -97 -175
-205 -175 -134 0 -246 120 -285 307 -24 111 -15 214 25 293 53 103 177 138
288 81z"/>
<path d="M12230 911 c-71 -15 -139 -61 -167 -114 -20 -39 -20 -145 0 -184 23
-45 72 -83 167 -132 130 -67 180 -122 180 -198 0 -45 -20 -77 -60 -98 -89 -46
-215 17 -270 136 -36 75 -50 65 -50 -35 0 -80 2 -86 27 -105 68 -55 235 -66
320 -22 44 22 99 79 115 120 15 39 12 134 -5 168 -23 44 -74 84 -185 147 -130
73 -162 108 -162 180 0 87 55 121 152 92 65 -19 125 -67 136 -108 15 -57 29
-42 36 39 8 90 5 95 -76 112 -54 12 -104 12 -158 2z"/>
<path d="M1794 886 c-121 -45 -214 -119 -214 -170 0 -28 39 -66 69 -66 27 0
71 42 71 68 0 34 51 122 81 137 46 24 96 19 129 -13 38 -38 50 -88 50 -208 l0
-101 -127 -48 c-221 -82 -275 -123 -277 -209 -1 -54 18 -91 61 -117 28 -18 46
-21 102 -17 62 3 77 9 154 56 47 28 88 52 91 52 3 0 6 -10 6 -22 0 -38 37 -88
63 -88 20 0 210 81 226 96 3 2 0 9 -5 14 -6 6 -27 4 -57 -5 -50 -15 -87 -9
-104 17 -4 7 -10 128 -13 268 -5 237 -7 258 -27 300 -13 25 -36 53 -52 63 -43
25 -150 22 -227 -7z m186 -490 l0 -105 -60 -36 c-83 -50 -141 -52 -182 -6 -47
53 -32 130 34 164 24 13 175 76 206 86 1 1 2 -46 2 -103z"/>
<path d="M3441 849 c-88 -42 -121 -63 -114 -70 7 -7 23 -6 53 4 51 17 76 12
93 -17 16 -28 23 -467 8 -523 -12 -43 -40 -63 -91 -63 -20 0 -30 -5 -30 -15 0
-13 27 -15 186 -15 144 0 185 3 182 13 -3 6 -15 13 -29 15 -48 6 -78 24 -88
54 -7 20 -11 151 -11 354 0 302 -1 324 -17 323 -10 0 -74 -27 -142 -60z"/>
<path d="M5103 886 c-73 -27 -156 -78 -183 -114 -27 -34 -26 -86 2 -106 49
-35 100 -3 118 75 8 34 24 63 50 90 31 33 43 39 79 39 87 0 116 -49 127 -216
5 -87 4 -112 -7 -120 -8 -6 -72 -32 -143 -58 -137 -51 -185 -77 -226 -121 -21
-22 -25 -36 -25 -87 0 -56 2 -62 37 -94 35 -31 43 -34 103 -34 70 0 123 21
213 82 24 17 44 28 46 26 1 -1 11 -25 22 -53 16 -40 25 -51 46 -53 32 -4 228
86 228 104 0 17 4 17 -57 -1 -56 -17 -94 -8 -110 24 -4 9 -10 133 -13 276 -6
288 -10 307 -73 345 -46 28 -152 26 -234 -4z m197 -488 c0 -51 -4 -98 -8 -104
-10 -16 -111 -70 -144 -78 -42 -10 -95 17 -114 57 -35 73 4 123 136 177 136
55 130 58 130 -52z"/>
<path d="M8660 893 c-111 -38 -208 -132 -252 -243 -31 -79 -31 -222 1 -302 28
-72 99 -152 165 -185 72 -37 207 -44 287 -15 66 23 159 81 159 99 0 19 -15 16
-73 -14 -45 -24 -64 -28 -137 -28 -99 0 -145 19 -200 81 -60 69 -84 136 -88
251 l-4 103 243 2 244 3 0 71 c0 60 -4 77 -27 111 -39 60 -95 83 -194 82 -43
0 -99 -8 -124 -16z m123 -37 c57 -24 97 -89 97 -157 l0 -29 -175 0 c-194 0
-189 -2 -160 66 45 108 147 159 238 120z"/>
<path d="M9228 857 c-60 -28 -108 -57 -108 -64 0 -16 1 -16 66 3 61 17 89 9
104 -32 6 -14 10 -140 10 -280 l0 -255 -25 -24 c-16 -17 -35 -25 -60 -25 -24
0 -35 -4 -35 -15 0 -13 31 -15 215 -15 184 0 215 2 215 15 0 11 -11 15 -42 15
-24 0 -60 5 -80 10 -66 19 -68 26 -68 295 l0 241 43 41 c73 71 99 75 163 27
38 -29 77 -31 104 -4 51 51 -7 120 -102 120 -52 0 -92 -23 -156 -90 -51 -53
-62 -55 -62 -9 0 45 -30 99 -54 98 -12 0 -69 -24 -128 -52z"/>
<path d="M9978 853 c-70 -34 -118 -62 -118 -71 0 -10 6 -12 23 -7 12 4 41 10
65 12 67 8 72 -14 72 -302 0 -272 -4 -290 -68 -300 -52 -9 -62 -13 -62 -25 0
-6 65 -10 185 -10 158 0 185 2 185 15 0 10 -10 15 -34 15 -22 0 -45 9 -63 24
l-28 24 -2 339 c-2 318 -3 338 -20 340 -10 1 -71 -24 -135 -54z"/>
<path d="M11368 857 c-59 -29 -108 -58 -108 -64 0 -16 -3 -16 65 2 31 8 63 11
73 8 39 -15 41 -29 42 -310 l0 -272 -26 -20 c-15 -12 -41 -21 -60 -21 -24 0
-34 -5 -34 -15 0 -13 31 -15 215 -15 184 0 215 2 215 15 0 11 -12 15 -47 16
-66 0 -115 19 -130 49 -9 18 -13 91 -13 259 l0 235 50 48 c66 64 88 68 148 29
56 -36 91 -39 116 -12 45 50 -15 121 -103 121 -54 0 -74 -12 -152 -87 l-56
-55 -7 42 c-10 62 -32 100 -59 99 -12 0 -70 -24 -129 -52z"/>
</g>
</svg>
